# 3ds Max Wavefront OBJ Exporter v0.99 - (c)2007 guruware
# File Created: 05.04.2025 16:07:58

mtllib world.mtl

#
# object wall
#

v  -369.0847 0.0000 500.9807
v  370.5311 0.0000 500.9807
v  370.5311 618.2393 500.9807
v  -369.0847 618.2393 500.9807
v  370.5311 0.0000 -500.4334
v  370.5311 618.2393 -500.4334
v  -369.0847 0.0000 -500.4334
v  -369.0847 618.2393 -500.4334
v  355.1039 618.2393 480.0928
v  355.1039 -0.0000 480.0928
v  -353.6574 -0.0000 480.0928
v  -353.6574 618.2393 480.0928
v  355.1039 618.2393 -479.5455
v  355.1039 -0.0000 -479.5455
v  -353.6574 618.2393 -479.5455
v  -353.6574 -0.0000 -479.5455
# 16 vertices

vn -0.7071 0.0000 0.7071
vn 0.7071 0.0000 0.7071
vn 0.5774 0.5774 0.5774
vn -0.5774 0.5774 0.5774
vn 0.7071 0.0000 -0.7071
vn 0.5774 0.5774 -0.5774
vn -0.7071 0.0000 -0.7071
vn -0.5774 0.5774 -0.5774
vn -0.3015 0.9045 -0.3015
vn -0.7071 -0.0000 -0.7071
vn 0.7071 -0.0000 -0.7071
vn 0.3015 0.9045 -0.3015
vn -0.3015 0.9045 0.3015
vn -0.7071 -0.0000 0.7071
vn 0.3015 0.9045 0.3015
vn 0.7071 -0.0000 0.7071
# 16 vertex normals

vt 0.0000 0.0000 0.0000
vt 1.0000 0.0000 0.0000
vt 1.0000 1.0000 0.0000
vt 0.0000 1.0000 0.0000
# 4 texture coords

o wall
g wall
usemtl wire_178211226
s 8
f 1/1/1 2/2/2 3/3/3 4/4/4 
s 16
f 2/1/2 5/2/5 6/3/6 3/4/3 
s 32
f 5/1/5 7/2/7 8/3/8 6/4/6 
s 64
f 7/1/7 1/2/1 4/3/4 8/4/8 
s 8
f 9/3/9 10/2/10 11/1/11 12/4/12 
s 16
f 13/3/13 14/2/14 10/1/10 9/4/9 
s 32
f 15/3/15 16/2/16 14/1/14 13/4/13 
s 64
f 12/3/12 11/2/11 16/1/16 15/4/15 
s 1
f 4/4/4 3/3/3 9/3/9 12/4/12 
f 3/4/3 6/3/6 13/3/13 9/4/9 
f 6/4/6 8/3/8 15/3/15 13/4/13 
f 8/4/8 4/3/4 12/3/12 15/4/15 
# 12 polygons

#
# object boundries
#

v  -149.8960 61.4454 428.2049
v  -149.8960 -3.1754 428.2049
v  -206.0510 -3.1754 398.1718
v  -206.0510 61.4454 398.1718
v  -230.8485 -3.1754 336.1439
v  -230.8485 61.4454 336.1439
v  -239.5579 -3.1754 263.1356
v  -239.5579 61.4454 263.1356
v  -248.4367 -3.1754 190.1852
v  -248.4367 61.4454 190.1852
v  -257.3156 -3.1754 117.2348
v  -257.3156 61.4454 117.2348
v  -263.4725 -3.1754 44.8306
v  -263.4725 61.4454 44.8306
v  -268.3546 -3.1754 -28.4958
v  -268.3546 61.4454 -28.4958
v  -271.1094 -3.1754 -100.9205
v  -271.1094 61.4454 -100.9205
v  -271.1094 -3.1754 -174.4093
v  -271.1094 61.4454 -174.4093
v  -270.5567 -3.1754 -247.6085
v  -270.5567 61.4454 -247.6085
v  -263.2771 -3.1754 -317.0709
v  -263.2771 61.4454 -317.0709
v  -235.3559 -3.1754 -377.8792
v  -235.3559 61.4454 -377.8792
v  -181.5937 -3.1754 -414.4725
v  -181.5937 61.4454 -414.4725
v  -114.5825 -3.1754 -427.6951
v  -114.5825 61.4454 -427.6951
v  -44.3110 -3.1754 -435.8652
v  -44.3110 61.4454 -435.8652
v  29.0849 -3.1754 -432.1706
v  29.0849 61.4454 -432.1706
v  101.0056 -3.1754 -426.9932
v  101.0056 61.4454 -426.9932
v  173.7643 -3.1754 -416.6604
v  173.7643 61.4454 -416.6604
v  231.5511 -3.1754 -397.0850
v  231.5511 61.4454 -397.0850
v  259.6435 -3.1754 -342.1971
v  259.6435 61.4454 -342.1971
v  233.8985 -3.1754 -293.7084
v  233.8985 61.4454 -293.7084
v  170.5971 -3.1754 -259.5021
v  170.5971 61.4454 -259.5021
v  104.3728 -3.1754 -227.2403
v  104.3728 61.4454 -227.2403
v  42.7040 -3.1754 -188.9147
v  42.7040 61.4454 -188.9147
v  -6.0418 -3.1754 -139.4025
v  -6.0418 61.4454 -139.4025
v  -7.9551 61.4454 -109.1394
v  -7.9551 -3.1754 -109.1394
v  31.3039 -3.1754 -57.0710
v  31.3039 61.4454 -57.0710
v  78.6541 -3.1754 -9.7072
v  78.6541 61.4454 -9.7072
v  125.7994 -3.1754 42.8811
v  125.7994 61.4454 42.8811
v  168.5114 -3.1754 102.6828
v  168.5114 61.4454 102.6828
v  208.7757 -3.1754 161.3047
v  208.7757 61.4454 161.3047
v  241.6976 -3.1754 227.0069
v  241.6976 61.4454 227.0069
v  259.0767 -3.1754 290.3837
v  259.0768 61.4454 290.3837
v  248.4295 -3.1754 351.9969
v  248.4295 61.4454 351.9969
v  204.4243 -3.1754 398.0609
v  204.4243 61.4454 398.0609
v  140.3209 -3.1754 422.4242
v  140.3209 61.4454 422.4242
v  66.9944 -3.1754 427.3066
v  66.9944 61.4454 427.3066
v  -6.3317 -3.1754 432.1890
v  -6.3317 61.4454 432.1890
v  -79.6583 -3.1754 437.0714
v  -79.6583 61.4454 437.0714
v  -156.3941 61.4454 441.3023
v  -78.6869 61.4454 451.6599
v  6.8026 61.4454 -111.5184
v  1.6809 61.4454 -126.5585
v  -13.1403 61.4454 -124.6592
v  -13.1403 -3.1754 -124.6592
v  23.8064 66.3438 -280.8059
v  57.1962 66.3438 -301.9293
v  44.4060 66.3438 -309.2516
v  16.0552 66.3438 -291.9542
v  60.0393 66.3438 -325.8107
v  46.1139 66.3438 -323.5985
v  45.8241 66.3438 -356.5154
v  35.2812 66.3438 -346.9974
v  16.7133 66.3438 -369.3708
v  13.6391 66.3438 -355.4194
v  -31.4590 66.3438 -364.6516
v  -28.0439 66.3438 -351.3639
v  -76.7468 66.3438 -344.1014
v  -69.4520 66.3438 -332.4597
v  -111.7082 66.3438 -312.2868
v  -100.5794 66.3438 -303.9960
v  -131.3252 66.3438 -270.2126
v  -118.1718 66.3438 -266.3594
v  -140.7106 66.3438 -208.8175
v  -127.1655 66.3438 -207.7062
v  -148.8758 66.3438 -43.3314
v  -135.3129 66.3438 -43.0354
v  -147.4269 66.3438 57.6646
v  -133.8567 66.3438 57.6255
v  -146.5209 66.3438 110.9034
v  -132.9599 66.3438 110.5293
v  -143.5391 66.3438 188.0714
v  -130.0073 66.3438 186.6397
v  -134.8818 66.3438 243.2585
v  -121.7851 66.3438 239.4787
v  -120.7534 66.3438 278.7449
v  -109.6669 66.3438 269.9133
v  -77.2439 66.3438 312.4840
v  -72.1405 66.3438 299.5225
v  -22.5631 66.3438 320.5253
v  -23.1206 66.3438 306.7313
v  14.0247 66.3438 312.0820
v  8.9020 66.3438 299.3414
v  44.6625 66.3438 293.8082
v  35.2422 66.3438 283.6309
v  66.5537 66.3438 262.8193
v  53.3746 66.3438 257.9630
v  72.2398 66.3438 200.5572
v  58.5295 66.3438 201.5171
v  55.4660 66.3438 129.1975
v  42.8764 66.3438 134.9247
v  13.3894 66.3438 70.6309
v  3.0407 66.3438 79.4774
v  -32.6676 66.3438 25.1421
v  -41.9092 66.3438 35.0819
v  -101.8570 66.3438 -46.5024
v  -115.9720 66.3438 -40.8268
v  -94.7334 66.3438 -169.8901
v  -107.8426 66.3438 -175.7020
v  -86.1559 66.3438 -195.0515
v  -97.9261 66.3438 -202.6779
v  -69.8564 66.3438 -218.4534
v  -80.1936 66.3438 -227.6348
v  -48.2272 66.3438 -237.5517
v  -56.9834 66.3438 -248.0618
v  23.8064 3.2601 -280.8059
v  57.1962 3.2601 -301.9294
v  60.0393 3.2601 -325.8107
v  45.8241 3.2601 -356.5154
v  16.7133 3.2601 -369.3708
v  -31.4590 3.2601 -364.6516
v  -76.7468 3.2601 -344.1014
v  -111.7082 3.2601 -312.2868
v  -131.3252 3.2601 -270.2126
v  -140.7106 3.2601 -208.8175
v  -148.8758 3.2601 -43.3314
v  -147.4269 3.2601 57.6646
v  -146.5209 3.2601 110.9034
v  -143.5391 3.2601 188.0714
v  -134.8818 3.2601 243.2585
v  -120.7534 3.2601 278.7449
v  -77.2439 3.2601 312.4840
v  -22.5631 3.2601 320.5253
v  14.0247 3.2601 312.0819
v  44.6625 3.2601 293.8082
v  66.5537 3.2601 262.8193
v  72.2398 3.2601 200.5572
v  55.4660 3.2601 129.1975
v  13.3894 3.2601 70.6309
v  -32.6676 3.2601 25.1421
v  -101.8570 3.2601 -46.5024
v  -94.7334 3.2601 -169.8901
v  -86.1559 3.2601 -195.0515
v  -69.8564 3.2601 -218.4534
v  -48.2272 3.2601 -237.5517
v  44.4060 3.2601 -309.2516
v  16.0552 3.2601 -291.9542
v  -56.9834 3.2601 -248.0618
v  -80.1936 3.2601 -227.6348
v  -97.9261 3.2601 -202.6779
v  -107.8426 3.2601 -175.7020
v  -115.9720 3.2601 -40.8268
v  -41.9092 3.2601 35.0819
v  3.0407 3.2601 79.4774
v  42.8764 3.2601 134.9247
v  58.5295 3.2601 201.5171
v  53.3746 3.2601 257.9630
v  35.2422 3.2601 283.6309
v  8.9020 3.2601 299.3414
v  -23.1206 3.2601 306.7312
v  -72.1405 3.2601 299.5224
v  -109.6669 3.2601 269.9132
v  -121.7851 3.2601 239.4787
v  -130.0073 3.2601 186.6397
v  -132.9599 3.2601 110.5293
v  -133.8567 3.2601 57.6255
v  -135.3129 3.2601 -43.0354
v  -127.1655 3.2601 -207.7062
v  -118.1718 3.2601 -266.3594
v  -100.5794 3.2601 -303.9960
v  -69.4520 3.2601 -332.4597
v  -28.0439 3.2601 -351.3639
v  13.6391 3.2601 -355.4195
v  35.2812 3.2601 -346.9974
v  46.1139 3.2601 -323.5986
v  -218.8877 61.4454 405.1710
v  -245.3667 61.4454 337.8735
v  -254.0716 61.4454 264.9020
v  -262.9505 61.4454 191.9517
v  -271.8293 61.4454 119.0013
v  -278.0611 61.4454 45.8019
v  -282.9431 61.4454 -27.5245
v  -285.7302 61.4454 -100.9205
v  -285.7302 61.4454 -174.4093
v  -285.1747 61.4454 -247.8926
v  -277.4781 61.4454 -320.5493
v  -247.3598 61.4454 -386.2263
v  -188.4298 61.4454 -427.3967
v  -116.5428 61.4454 -442.1839
v  -43.5757 61.4454 -450.4675
v  29.8202 61.4454 -446.7729
v  103.0616 61.4454 -441.4688
v  175.8203 61.4454 -431.1359
v  243.2055 61.4454 -405.9135
v  274.2577 61.4454 -342.6348
v  241.1767 61.4454 -281.0278
v  176.5690 61.4454 -246.1565
v  114.3370 61.4454 -216.4881
v  55.4671 61.4454 -182.1422
v  9.5643 61.4454 -140.3030
v  44.1279 61.4454 -63.6779
v  88.8659 61.4454 -20.1709
v  137.6971 61.4454 34.3833
v  180.4091 61.4454 94.1851
v  221.8473 61.4454 154.7548
v  254.7692 61.4454 220.4568
v  273.6830 61.4454 291.0376
v  260.1248 61.4454 360.7712
v  209.9105 61.4454 411.6133
v  141.2923 61.4454 437.0127
v  67.9657 61.4454 441.8951
v  -5.3603 61.4454 446.7775
v  -156.3941 -3.1754 441.3023
v  -218.8876 -3.1754 405.1710
v  -245.3667 -3.1754 337.8735
v  -254.0716 -3.1754 264.9020
v  -262.9505 -3.1754 191.9517
v  -271.8293 -3.1754 119.0013
v  -278.0611 -3.1754 45.8019
v  -282.9431 -3.1754 -27.5245
v  -285.7302 -3.1754 -100.9205
v  -285.7302 -3.1754 -174.4093
v  -285.1747 -3.1754 -247.8926
v  -277.4781 -3.1754 -320.5493
v  -247.3598 -3.1754 -386.2263
v  -188.4298 -3.1754 -427.3967
v  -116.5428 -3.1754 -442.1839
v  -43.5757 -3.1754 -450.4675
v  29.8202 -3.1754 -446.7729
v  103.0616 -3.1754 -441.4688
v  175.8203 -3.1754 -431.1359
v  243.2055 -3.1754 -405.9135
v  274.2577 -3.1754 -342.6347
v  241.1767 -3.1754 -281.0278
v  176.5690 -3.1754 -246.1565
v  114.3370 -3.1754 -216.4880
v  55.4671 -3.1754 -182.1422
v  9.5643 -3.1754 -140.3029
v  6.8026 -3.1754 -111.5184
v  44.1279 -3.1754 -63.6779
v  88.8659 -3.1754 -20.1709
v  137.6971 -3.1754 34.3833
v  180.4091 -3.1754 94.1851
v  221.8473 -3.1754 154.7548
v  254.7692 -3.1754 220.4568
v  273.6830 -3.1754 291.0376
v  260.1248 -3.1754 360.7712
v  209.9105 -3.1754 411.6133
v  141.2922 -3.1754 437.0127
v  67.9657 -3.1754 441.8951
v  -5.3603 -3.1754 446.7775
v  -78.6869 -3.1754 451.6599
v  1.6809 -3.1754 -126.5585
# 284 vertices

vn 0.2006 0.7504 -0.6298
vn 0.2006 -0.7504 -0.6298
vn 0.4540 -0.7929 -0.4063
vn 0.4540 0.7929 -0.4063
vn 0.6542 -0.7377 -0.1667
vn 0.6542 0.7377 -0.1667
vn 0.7023 -0.7068 -0.0846
vn 0.7023 0.7069 -0.0846
vn 0.7019 -0.7071 -0.0854
vn 0.7019 0.7071 -0.0854
vn 0.6993 -0.7112 -0.0723
vn 0.6993 0.7112 -0.0723
vn 0.7030 -0.7092 -0.0533
vn 0.7030 0.7092 -0.0533
vn 0.7029 -0.7103 -0.0368
vn 0.7029 0.7103 -0.0368
vn 0.7027 -0.7114 -0.0134
vn 0.7027 0.7114 -0.0134
vn 0.7063 -0.7080 0.0027
vn 0.7063 0.7080 0.0027
vn 0.6948 -0.7182 0.0389
vn 0.6948 0.7182 0.0389
vn 0.6427 -0.7456 0.1761
vn 0.6427 0.7456 0.1761
vn 0.4847 -0.7727 0.4098
vn 0.4847 0.7727 0.4098
vn 0.2531 -0.7550 0.6049
vn 0.2531 0.7550 0.6049
vn 0.1079 -0.7161 0.6896
vn 0.1079 0.7161 0.6896
vn 0.0225 -0.7263 0.6871
vn 0.0225 0.7263 0.6871
vn -0.0430 -0.7095 0.7034
vn -0.0430 0.7095 0.7034
vn -0.0743 -0.7150 0.6951
vn -0.0743 0.7150 0.6951
vn -0.1587 -0.7287 0.6662
vn -0.1587 0.7287 0.6662
vn -0.3901 -0.8023 0.4518
vn -0.3901 0.8023 0.4518
vn -0.5617 -0.8273 -0.0042
vn -0.5617 0.8273 -0.0042
vn -0.4455 -0.7784 -0.4423
vn -0.4455 0.7784 -0.4423
vn -0.3208 -0.7119 -0.6248
vn -0.3208 0.7119 -0.6248
vn -0.3473 -0.6957 -0.6287
vn -0.3473 0.6957 -0.6287
vn -0.4571 -0.6815 -0.5715
vn -0.4572 0.6814 -0.5716
vn -0.6056 -0.6721 -0.4261
vn -0.6056 0.6721 -0.4261
vn -0.6549 0.6726 0.3445
vn -0.6549 -0.6726 0.3445
vn -0.5449 -0.6918 0.4738
vn -0.5449 0.6918 0.4738
vn -0.5089 -0.7133 0.4818
vn -0.5089 0.7133 0.4818
vn -0.5417 -0.7198 0.4341
vn -0.5417 0.7198 0.4341
vn -0.5775 -0.7092 0.4045
vn -0.5775 0.7092 0.4045
vn -0.5951 -0.7229 0.3512
vn -0.5951 0.7229 0.3512
vn -0.6382 -0.7299 0.2447
vn -0.6382 0.7299 0.2447
vn -0.6497 -0.7595 0.0314
vn -0.6497 0.7595 0.0314
vn -0.5600 -0.7790 -0.2822
vn -0.5600 0.7790 -0.2822
vn -0.3591 -0.7604 -0.5412
vn -0.3591 0.7603 -0.5413
vn -0.1430 -0.7419 -0.6551
vn -0.1429 0.7419 -0.6551
vn -0.0470 -0.7071 -0.7056
vn -0.0470 0.7071 -0.7055
vn -0.0470 0.7071 -0.7056
vn 0.0202 -0.7293 -0.6839
vn 0.0202 0.7293 -0.6839
vn -0.2406 0.6658 0.7063
vn -0.0240 0.6854 0.7278
vn 0.5854 0.7465 -0.3163
vn 0.5802 0.8125 0.0560
vn -0.7738 0.6315 -0.0489
vn -0.7738 -0.6315 -0.0489
vn 0.3724 0.7045 0.6041
vn 0.6623 0.6220 0.4177
vn -0.4818 0.8199 -0.3093
vn -0.3659 0.7079 -0.6042
vn 0.7500 0.6506 -0.1192
vn -0.6255 0.7739 0.0994
vn 0.5410 0.6356 -0.5507
vn -0.4093 0.8017 0.4357
vn 0.1198 0.6542 -0.7468
vn -0.0883 0.7632 0.6401
vn -0.1917 0.6721 -0.7152
vn 0.1728 0.7462 0.6429
vn -0.4063 0.6738 -0.6172
vn 0.3688 0.7439 0.5573
vn -0.6012 0.6654 -0.4424
vn 0.5296 0.7538 0.3891
vn -0.7048 0.6765 -0.2134
vn 0.6431 0.7405 0.1952
vn -0.7146 0.6958 -0.0721
vn 0.6916 0.7188 0.0700
vn -0.7140 0.7000 -0.0125
vn 0.6997 0.7144 0.0122
vn -0.7073 0.7068 0.0111
vn 0.7067 0.7074 -0.0111
vn -0.7092 0.7047 0.0197
vn 0.7043 0.7096 -0.0196
vn -0.7164 0.6942 0.0698
vn 0.6903 0.7204 -0.0669
vn -0.7046 0.6829 0.1929
vn 0.6560 0.7332 -0.1792
vn -0.6056 0.6525 0.4556
vn 0.5112 0.7703 -0.3813
vn -0.2965 0.6542 0.6958
vn 0.2526 0.7701 -0.5859
vn 0.0301 0.6677 0.7438
vn -0.0266 0.7513 -0.6594
vn 0.2756 0.6739 0.6855
vn -0.2494 0.7436 -0.6203
vn 0.5084 0.6633 0.5492
vn -0.4439 0.7569 -0.4796
vn 0.7105 0.6532 0.2618
vn -0.5983 0.7703 -0.2205
vn 0.7381 0.6727 -0.0517
vn -0.6654 0.7451 0.0466
vn 0.6792 0.6658 -0.3090
vn -0.5982 0.7537 0.2721
vn 0.5512 0.6886 -0.4712
vn -0.5222 0.7266 0.4464
vn 0.5009 0.7098 -0.4953
vn -0.5030 0.7051 0.4999
vn 0.5505 0.8095 -0.2042
vn -0.7305 0.6264 0.2720
vn 0.6614 0.7388 0.1293
vn -0.7215 0.6758 -0.1509
vn 0.6003 0.7399 0.3037
vn -0.6499 0.6785 -0.3425
vn 0.5062 0.7350 0.4512
vn -0.5433 0.6821 -0.4895
vn 0.4049 0.7282 0.5530
vn -0.4287 0.6874 -0.5863
vn 0.5247 0.0000 0.8513
vn 0.8459 -0.0000 0.5334
vn 0.9876 0.0000 -0.1569
vn 0.7008 0.0000 -0.7133
vn 0.1584 0.0000 -0.9874
vn -0.2588 0.0000 -0.9659
vn -0.5498 0.0000 -0.8353
vn -0.8054 0.0000 -0.5927
vn -0.9571 0.0000 -0.2898
vn -0.9950 0.0000 -0.1003
vn -0.9998 0.0000 -0.0175
vn -0.9999 0.0000 0.0157
vn -0.9996 0.0000 0.0278
vn -0.9953 0.0000 0.0970
vn -0.9645 -0.0000 0.2641
vn -0.7991 0.0000 0.6012
vn -0.3920 0.0000 0.9200
vn 0.0404 -0.0000 0.9992
vn 0.3731 -0.0000 0.9278
vn 0.6793 -0.0000 0.7339
vn 0.9383 -0.0000 0.3458
vn 0.9976 0.0000 -0.0698
vn 0.9102 0.0000 -0.4141
vn 0.7601 0.0000 -0.6498
vn 0.7111 0.0000 -0.7031
vn 0.9376 0.0000 -0.3478
vn 0.9814 0.0000 0.1919
vn 0.8923 0.0000 0.4515
vn 0.7466 0.0000 0.6653
vn 0.5908 0.0000 0.8068
vn -0.8415 0.0000 -0.5403
vn -0.5180 0.0000 -0.8554
vn -0.5903 0.0000 -0.8072
vn -0.7429 0.0000 -0.6694
vn -0.8847 0.0000 -0.4662
vn -0.9788 0.0000 -0.2048
vn -0.9371 0.0000 0.3489
vn -0.7093 0.0000 0.7049
vn -0.7601 0.0000 0.6498
vn -0.9102 0.0000 0.4141
vn -0.9976 0.0000 0.0698
vn -0.9383 0.0000 -0.3458
vn -0.6793 0.0000 -0.7339
vn -0.3731 0.0000 -0.9278
vn -0.0404 0.0000 -0.9992
vn 0.3959 0.0000 -0.9183
vn 0.8016 0.0000 -0.5979
vn 0.9647 0.0000 -0.2635
vn 0.9953 0.0000 -0.0964
vn 0.9996 0.0000 -0.0279
vn 0.9999 0.0000 -0.0157
vn 0.9998 0.0000 0.0175
vn 0.9949 0.0000 0.1006
vn 0.9569 0.0000 0.2905
vn 0.8059 0.0000 0.5921
vn 0.5518 0.0000 0.8340
vn 0.2596 0.0000 0.9657
vn -0.1366 -0.0000 0.9906
vn -0.6847 0.0000 0.7288
vn -0.9876 -0.0000 0.1569
vn -0.5824 0.6399 0.5013
vn -0.7115 0.6794 0.1792
vn -0.7017 0.7074 0.0846
vn -0.7018 0.7072 0.0854
vn -0.7073 0.7031 0.0731
vn -0.7071 0.7051 0.0536
vn -0.7093 0.7039 0.0371
vn -0.7112 0.7029 0.0135
vn -0.7080 0.7063 -0.0027
vn -0.7167 0.6962 -0.0406
vn -0.7137 0.6725 -0.1958
vn -0.5818 0.6525 -0.4855
vn -0.2954 0.6643 -0.6866
vn -0.1128 0.6972 -0.7080
vn -0.0227 0.6892 -0.7242
vn 0.0435 0.7046 -0.7082
vn 0.0761 0.6994 -0.7106
vn 0.1803 0.6835 -0.7073
vn 0.5201 0.6327 -0.5738
vn 0.7866 0.6173 0.0144
vn 0.5393 0.6478 0.5381
vn 0.3227 0.7015 0.6354
vn 0.3261 0.7166 0.6166
vn 0.4036 0.7316 0.5494
vn 0.5214 0.7437 0.4184
vn 0.5145 0.7228 -0.4613
vn 0.5157 0.6994 -0.4948
vn 0.5613 0.6950 -0.4494
vn 0.5814 0.7048 -0.4064
vn 0.6219 0.6922 -0.3663
vn 0.6810 0.6850 -0.2588
vn 0.7510 0.6598 -0.0262
vn 0.6740 0.6474 0.3557
vn 0.4067 0.6614 0.6302
vn 0.1539 0.6762 0.7205
vn 0.0470 0.7071 0.7055
vn -0.2406 -0.6658 0.7063
vn -0.5824 -0.6399 0.5013
vn -0.7115 -0.6795 0.1792
vn -0.7018 -0.7074 0.0846
vn -0.7018 -0.7072 0.0854
vn -0.7073 -0.7031 0.0731
vn -0.7071 -0.7051 0.0536
vn -0.7093 -0.7039 0.0371
vn -0.7112 -0.7029 0.0135
vn -0.7080 -0.7063 -0.0027
vn -0.7166 -0.6963 -0.0406
vn -0.7137 -0.6725 -0.1958
vn -0.5817 -0.6526 -0.4855
vn -0.2954 -0.6643 -0.6866
vn -0.1128 -0.6972 -0.7080
vn -0.0227 -0.6892 -0.7242
vn 0.0435 -0.7046 -0.7082
vn 0.0761 -0.6994 -0.7106
vn 0.1803 -0.6835 -0.7073
vn 0.5201 -0.6327 -0.5738
vn 0.7866 -0.6173 0.0144
vn 0.5393 -0.6478 0.5381
vn 0.3227 -0.7015 0.6354
vn 0.3261 -0.7166 0.6166
vn 0.4036 -0.7316 0.5494
vn 0.5214 -0.7437 0.4184
vn 0.5854 -0.7465 -0.3163
vn 0.5145 -0.7228 -0.4613
vn 0.5157 -0.6994 -0.4948
vn 0.5613 -0.6949 -0.4494
vn 0.5814 -0.7049 -0.4064
vn 0.6219 -0.6921 -0.3663
vn 0.6810 -0.6851 -0.2588
vn 0.7509 -0.6598 -0.0262
vn 0.6740 -0.6474 0.3557
vn 0.4067 -0.6614 0.6302
vn 0.1539 -0.6762 0.7205
vn 0.0470 -0.7071 0.7056
vn 0.0470 -0.7071 0.7055
vn -0.0240 -0.6854 0.7278
vn 0.5802 -0.8125 0.0560
# 282 vertex normals

vt 0.0000 0.0000 0.0000
vt 1.0000 0.0000 0.0000
vt 1.0000 0.0263 0.0000
vt 0.0000 0.0263 0.0000
vt 1.0000 0.0526 0.0000
vt 0.0000 0.0526 0.0000
vt 1.0000 0.0789 0.0000
vt 0.0000 0.0789 0.0000
vt 1.0000 0.1053 0.0000
vt 0.0000 0.1053 0.0000
vt 1.0000 0.1316 0.0000
vt 0.0000 0.1316 0.0000
vt 1.0000 0.1579 0.0000
vt 0.0000 0.1579 0.0000
vt 1.0000 0.1842 0.0000
vt 0.0000 0.1842 0.0000
vt 1.0000 0.2105 0.0000
vt 0.0000 0.2105 0.0000
vt 1.0000 0.2368 0.0000
vt 0.0000 0.2368 0.0000
vt 1.0000 0.2632 0.0000
vt 0.0000 0.2632 0.0000
vt 1.0000 0.2895 0.0000
vt 0.0000 0.2895 0.0000
vt 1.0000 0.3158 0.0000
vt 0.0000 0.3158 0.0000
vt 1.0000 0.3421 0.0000
vt 0.0000 0.3421 0.0000
vt 1.0000 0.3684 0.0000
vt 0.0000 0.3684 0.0000
vt 1.0000 0.3947 0.0000
vt 0.0000 0.3947 0.0000
vt 1.0000 0.4211 0.0000
vt 0.0000 0.4211 0.0000
vt 1.0000 0.4474 0.0000
vt 0.0000 0.4474 0.0000
vt 1.0000 0.4737 0.0000
vt 0.0000 0.4737 0.0000
vt 1.0000 0.5000 0.0000
vt 0.0000 0.5000 0.0000
vt 1.0000 0.5263 0.0000
vt 0.0000 0.5263 0.0000
vt 1.0000 0.5526 0.0000
vt 0.0000 0.5526 0.0000
vt 1.0000 0.5789 0.0000
vt 0.0000 0.5789 0.0000
vt 1.0000 0.6053 0.0000
vt 0.0000 0.6053 0.0000
vt 1.0000 0.6316 0.0000
vt 0.0000 0.6316 0.0000
vt 1.0000 0.6520 0.0000
vt 0.0000 0.6520 0.0000
vt 0.0000 0.6644 0.0000
vt 1.0000 0.6644 0.0000
vt 1.0000 0.6842 0.0000
vt 0.0000 0.6842 0.0000
vt 1.0000 0.7105 0.0000
vt 0.0000 0.7105 0.0000
vt 1.0000 0.7368 0.0000
vt 0.0000 0.7368 0.0000
vt 1.0000 0.7632 0.0000
vt 0.0000 0.7632 0.0000
vt 1.0000 0.7895 0.0000
vt 0.0000 0.7895 0.0000
vt 1.0000 0.8158 0.0000
vt 0.0000 0.8158 0.0000
vt 1.0000 0.8421 0.0000
vt 0.0000 0.8421 0.0000
vt 1.0000 0.8684 0.0000
vt 0.0000 0.8684 0.0000
vt 1.0000 0.8947 0.0000
vt 0.0000 0.8947 0.0000
vt 1.0000 0.9211 0.0000
vt 0.0000 0.9211 0.0000
vt 1.0000 0.9474 0.0000
vt 0.0000 0.9474 0.0000
vt 1.0000 0.9737 0.0000
vt 0.0000 0.9737 0.0000
vt 1.0000 1.0000 0.0000
vt 0.0000 1.0000 0.0000
vt 0.5000 0.0000 0.0000
vt 0.5000 1.0000 0.0000
vt 0.5000 0.6655 0.0000
vt 0.5000 0.6579 0.0000
vt 1.0000 0.6579 0.0000
vt 0.0000 0.6579 0.0000
vt 61.8945 246.1612 19.5192
vt 95.2844 267.2846 19.5192
vt 82.4941 274.6069 19.5192
vt 54.1434 257.3094 19.5192
vt 98.1274 291.1660 19.5192
vt 84.2021 288.9538 19.5192
vt 83.9123 321.8707 19.5192
vt 73.3693 312.3527 19.5192
vt 54.8014 334.7261 19.5192
vt 51.7273 320.7747 19.5192
vt 6.6291 330.0068 19.5192
vt 10.0443 316.7192 19.5192
vt -38.6586 309.4567 19.5192
vt -31.3639 297.8149 19.5192
vt -73.6201 277.6421 19.5192
vt -62.4913 269.3513 19.5192
vt -93.2371 235.5679 19.5192
vt -80.0836 231.7147 19.5192
vt -102.6225 174.1728 19.5192
vt -89.0774 173.0615 19.5192
vt -110.7877 8.6867 19.5192
vt -97.2248 8.3907 19.5192
vt -109.3388 -92.3093 19.5192
vt -95.7685 -92.2702 19.5192
vt -108.4328 -145.5481 19.5192
vt -94.8718 -145.1740 19.5192
vt -105.4510 -222.7161 19.5192
vt -91.9191 -221.2844 19.5192
vt -96.7937 -277.9033 19.5192
vt -83.6970 -274.1234 19.5192
vt -82.6653 -313.3896 19.5192
vt -71.5788 -304.5580 19.5192
vt -39.1557 -347.1287 19.5192
vt -34.0524 -334.1672 19.5192
vt 15.5250 -355.1700 19.5192
vt 14.9675 -341.3760 19.5192
vt 52.1129 -346.7267 19.5192
vt 46.9901 -333.9861 19.5192
vt 82.7506 -328.4529 19.5192
vt 73.3303 -318.2756 19.5192
vt 104.6419 -297.4641 19.5192
vt 91.4628 -292.6077 19.5192
vt 110.3279 -235.2020 19.5192
vt 96.6177 -236.1618 19.5192
vt 93.5542 -163.8422 19.5192
vt 80.9645 -169.5694 19.5192
vt 51.4775 -105.2756 19.5192
vt 41.1288 -114.1221 19.5192
vt 5.4206 -59.7868 19.5192
vt -3.8211 -69.7267 19.5192
vt -63.7689 11.8577 19.5192
vt -77.8839 6.1821 19.5192
vt -56.6453 135.2454 19.5192
vt -69.7545 141.0573 19.5192
vt -48.0678 160.4068 19.5192
vt -59.8380 168.0332 19.5192
vt -31.7683 183.8087 19.5192
vt -42.1055 192.9901 19.5192
vt -10.1391 202.9070 19.5192
vt -18.8953 213.4171 19.5192
vt 61.8945 246.1612 0.0000
vt 95.2844 267.2846 0.0000
vt 98.1274 291.1660 0.0000
vt 83.9123 321.8707 0.0000
vt 54.8014 334.7261 0.0000
vt 6.6291 330.0068 0.0000
vt -38.6586 309.4567 0.0000
vt -73.6201 277.6421 0.0000
vt -93.2371 235.5679 0.0000
vt -102.6225 174.1728 0.0000
vt -110.7877 8.6867 0.0000
vt -109.3388 -92.3093 0.0000
vt -108.4328 -145.5481 0.0000
vt -105.4510 -222.7161 0.0000
vt -96.7937 -277.9032 0.0000
vt -82.6653 -313.3896 0.0000
vt -39.1557 -347.1287 0.0000
vt 15.5250 -355.1700 0.0000
vt 52.1129 -346.7267 0.0000
vt 82.7506 -328.4529 0.0000
vt 104.6419 -297.4640 0.0000
vt 110.3279 -235.2020 0.0000
vt 93.5542 -163.8422 0.0000
vt 51.4775 -105.2756 0.0000
vt 5.4206 -59.7868 0.0000
vt -63.7689 11.8577 0.0000
vt -56.6453 135.2454 0.0000
vt -48.0678 160.4068 0.0000
vt -31.7683 183.8087 0.0000
vt -10.1391 202.9070 0.0000
vt 82.4941 274.6069 0.0000
vt 54.1434 257.3094 0.0000
vt -18.8953 213.4171 0.0000
vt -42.1055 192.9901 0.0000
vt -59.8380 168.0332 0.0000
vt -69.7545 141.0573 0.0000
vt -77.8839 6.1821 0.0000
vt -3.8211 -69.7267 0.0000
vt 41.1288 -114.1221 0.0000
vt 80.9645 -169.5694 0.0000
vt 96.6177 -236.1618 0.0000
vt 91.4628 -292.6077 0.0000
vt 73.3303 -318.2756 0.0000
vt 46.9901 -333.9861 0.0000
vt 14.9675 -341.3759 0.0000
vt -34.0524 -334.1671 0.0000
vt -71.5788 -304.5580 0.0000
vt -83.6970 -274.1234 0.0000
vt -91.9191 -221.2844 0.0000
vt -94.8718 -145.1740 0.0000
vt -95.7685 -92.2702 0.0000
vt -97.2248 8.3907 0.0000
vt -89.0774 173.0615 0.0000
vt -80.0836 231.7147 0.0000
vt -62.4913 269.3513 0.0000
vt -31.3639 297.8149 0.0000
vt 10.0443 316.7192 0.0000
vt 51.7273 320.7747 0.0000
vt 73.3693 312.3527 0.0000
vt 84.2021 288.9538 0.0000
vt 0.5000 0.0263 0.0000
vt 0.5000 0.0526 0.0000
vt 0.5000 0.0789 0.0000
vt 0.5000 0.1053 0.0000
vt 0.5000 0.1316 0.0000
vt 0.5000 0.1579 0.0000
vt 0.5000 0.1842 0.0000
vt 0.5000 0.2105 0.0000
vt 0.5000 0.2368 0.0000
vt 0.5000 0.2632 0.0000
vt 0.5000 0.2895 0.0000
vt 0.5000 0.3158 0.0000
vt 0.5000 0.3421 0.0000
vt 0.5000 0.3684 0.0000
vt 0.5000 0.3947 0.0000
vt 0.5000 0.4211 0.0000
vt 0.5000 0.4474 0.0000
vt 0.5000 0.4737 0.0000
vt 0.5000 0.5000 0.0000
vt 0.5000 0.5263 0.0000
vt 0.5000 0.5526 0.0000
vt 0.5000 0.5789 0.0000
vt 0.5000 0.6053 0.0000
vt 0.5000 0.6316 0.0000
vt 0.5000 0.6505 0.0000
vt 0.5000 0.6842 0.0000
vt 0.5000 0.7105 0.0000
vt 0.5000 0.7368 0.0000
vt 0.5000 0.7632 0.0000
vt 0.5000 0.7895 0.0000
vt 0.5000 0.8158 0.0000
vt 0.5000 0.8421 0.0000
vt 0.5000 0.8684 0.0000
vt 0.5000 0.8947 0.0000
vt 0.5000 0.9211 0.0000
vt 0.5000 0.9474 0.0000
vt 0.5000 0.9737 0.0000
# 243 texture coords

o boundries
g boundries
usemtl 04___Default
s 1
f 17/5/17 18/6/18 19/7/19 20/8/20 
s 2
f 20/8/20 19/7/19 21/9/21 22/10/22 
f 22/10/22 21/9/21 23/11/23 24/12/24 
f 24/12/24 23/11/23 25/13/25 26/14/26 
f 26/14/26 25/13/25 27/15/27 28/16/28 
f 28/16/28 27/15/27 29/17/29 30/18/30 
f 30/18/30 29/17/29 31/19/31 32/20/32 
f 32/20/32 31/19/31 33/21/33 34/22/34 
f 34/22/34 33/21/33 35/23/35 36/24/36 
f 36/24/36 35/23/35 37/25/37 38/26/38 
f 38/26/38 37/25/37 39/27/39 40/28/40 
f 40/28/40 39/27/39 41/29/41 42/30/42 
s 1
f 42/30/42 41/29/41 43/31/43 44/32/44 
f 44/32/44 43/31/43 45/33/45 46/34/46 
f 46/34/46 45/33/45 47/35/47 48/36/48 
f 48/36/48 47/35/47 49/37/49 50/38/50 
f 50/38/50 49/37/49 51/39/51 52/40/52 
f 52/40/52 51/39/51 53/41/53 54/42/54 
f 54/42/54 53/41/53 55/43/55 56/44/56 
s 2
f 56/44/56 55/43/55 57/45/57 58/46/58 
s 1
f 58/46/58 57/45/57 59/47/59 60/48/60 
s 2
f 60/48/60 59/47/59 61/49/61 62/50/62 
f 62/50/62 61/49/61 63/51/63 64/52/64 
f 64/52/64 63/51/63 65/53/65 66/54/66 
f 66/54/66 65/53/65 67/55/67 68/56/68 
s 8
f 69/57/69 70/58/70 71/59/71 72/60/72 
f 72/60/72 71/59/71 73/61/73 74/62/74 
f 74/62/74 73/61/73 75/63/75 76/64/76 
f 76/64/76 75/63/75 77/65/77 78/66/78 
f 78/66/78 77/65/77 79/67/79 80/68/80 
f 80/68/80 79/67/79 81/69/81 82/70/82 
f 82/70/82 81/69/81 83/71/83 84/72/84 
f 84/72/84 83/71/83 85/73/85 86/74/86 
s 1
f 86/74/86 85/73/85 87/75/87 88/76/88 
f 88/76/88 87/75/87 89/77/89 90/78/90 
f 90/78/90 89/77/89 91/79/91 92/80/92 
f 92/80/92 91/79/91 93/81/91 94/82/93 
f 94/82/93 93/81/91 95/83/94 96/84/95 
f 18/6/18 17/5/17 96/84/95 95/83/94 
s 4
f 17/6/17 97/85/96 98/86/97 96/83/95 
f 69/58/69 99/87/98 100/88/99 101/89/100 
s 2
f 68/56/68 67/55/67 102/89/101 101/90/100 
s 8
f 70/58/70 69/57/69 101/90/100 102/89/101 
s off
f 103/91/102 104/92/103 105/93/104 106/94/105 
f 104/92/103 107/95/106 108/96/107 105/93/104 
f 107/95/106 109/97/108 110/98/109 108/96/107 
f 109/97/108 111/99/110 112/100/111 110/98/109 
f 111/99/110 113/101/112 114/102/113 112/100/111 
f 113/101/112 115/103/114 116/104/115 114/102/113 
f 115/103/114 117/105/116 118/106/117 116/104/115 
f 117/105/116 119/107/118 120/108/119 118/106/117 
f 119/107/118 121/109/120 122/110/121 120/108/119 
f 121/109/120 123/111/122 124/112/123 122/110/121 
f 123/111/122 125/113/124 126/114/125 124/112/123 
f 125/113/124 127/115/126 128/116/127 126/114/125 
f 127/115/126 129/117/128 130/118/129 128/116/127 
f 129/117/128 131/119/130 132/120/131 130/118/129 
f 131/119/130 133/121/132 134/122/133 132/120/131 
f 133/121/132 135/123/134 136/124/135 134/122/133 
f 135/123/134 137/125/136 138/126/137 136/124/135 
f 137/125/136 139/127/138 140/128/139 138/126/137 
f 139/127/138 141/129/140 142/130/141 140/128/139 
f 141/129/140 143/131/142 144/132/143 142/130/141 
f 143/131/142 145/133/144 146/134/145 144/132/143 
f 145/133/144 147/135/146 148/136/147 146/134/145 
f 147/135/146 149/137/148 150/138/149 148/136/147 
f 149/137/148 151/139/150 152/140/151 150/138/149 
f 151/139/150 153/141/152 154/142/153 152/140/151 
f 153/141/152 155/143/154 156/144/155 154/142/153 
f 155/143/154 157/145/156 158/146/157 156/144/155 
f 157/145/156 159/147/158 160/148/159 158/146/157 
f 159/147/158 161/149/160 162/150/161 160/148/159 
f 161/149/160 103/91/102 106/94/105 162/150/161 
s 1
f 163/151/162 164/152/163 104/92/103 103/91/102 
s off
f 164/152/163 165/153/164 107/95/106 104/92/103 
f 165/153/164 166/154/165 109/97/108 107/95/106 
s 2
f 166/154/165 167/155/166 111/99/110 109/97/108 
f 167/155/166 168/156/167 113/101/112 111/99/110 
f 168/156/167 169/157/168 115/103/114 113/101/112 
f 169/157/168 170/158/169 117/105/116 115/103/114 
f 170/158/169 171/159/170 119/107/118 117/105/116 
f 171/159/170 172/160/171 121/109/120 119/107/118 
f 172/160/171 173/161/172 123/111/122 121/109/120 
f 173/161/172 174/162/173 125/113/124 123/111/122 
f 174/162/173 175/163/174 127/115/126 125/113/124 
f 175/163/174 176/164/175 129/117/128 127/115/126 
f 176/164/175 177/165/176 131/119/130 129/117/128 
f 177/165/176 178/166/177 133/121/132 131/119/130 
f 178/166/177 179/167/178 135/123/134 133/121/132 
f 179/167/178 180/168/179 137/125/136 135/123/134 
f 180/168/179 181/169/180 139/127/138 137/125/136 
f 181/169/180 182/170/181 141/129/140 139/127/138 
f 182/170/181 183/171/182 143/131/142 141/129/140 
f 183/171/182 184/172/183 145/133/144 143/131/142 
f 184/172/183 185/173/184 147/135/146 145/133/144 
f 185/173/184 186/174/185 149/137/148 147/135/146 
f 186/174/185 187/175/186 151/139/150 149/137/148 
f 187/175/186 188/176/187 153/141/152 151/139/150 
s 1
f 188/176/187 189/177/188 155/143/154 153/141/152 
f 189/177/188 190/178/189 157/145/156 155/143/154 
f 190/178/189 191/179/190 159/147/158 157/145/156 
f 191/179/190 192/180/191 161/149/160 159/147/158 
f 192/180/191 163/151/162 103/91/102 161/149/160 
f 193/181/192 194/182/193 106/94/105 105/93/104 
f 194/182/193 195/183/194 162/150/161 106/94/105 
f 195/183/194 196/184/195 160/148/159 162/150/161 
f 196/184/195 197/185/196 158/146/157 160/148/159 
f 197/185/196 198/186/197 156/144/155 158/146/157 
f 198/186/197 199/187/198 154/142/153 156/144/155 
s 2
f 199/187/198 200/188/199 152/140/151 154/142/153 
f 200/188/199 201/189/200 150/138/149 152/140/151 
f 201/189/200 202/190/201 148/136/147 150/138/149 
f 202/190/201 203/191/202 146/134/145 148/136/147 
f 203/191/202 204/192/203 144/132/143 146/134/145 
f 204/192/203 205/193/204 142/130/141 144/132/143 
f 205/193/204 206/194/205 140/128/139 142/130/141 
f 206/194/205 207/195/206 138/126/137 140/128/139 
f 207/195/206 208/196/207 136/124/135 138/126/137 
f 208/196/207 209/197/208 134/122/133 136/124/135 
f 209/197/208 210/198/209 132/120/131 134/122/133 
f 210/198/209 211/199/210 130/118/129 132/120/131 
f 211/199/210 212/200/211 128/116/127 130/118/129 
f 212/200/211 213/201/212 126/114/125 128/116/127 
f 213/201/212 214/202/213 124/112/123 126/114/125 
f 214/202/213 215/203/214 122/110/121 124/112/123 
f 215/203/214 216/204/215 120/108/119 122/110/121 
f 216/204/215 217/205/216 118/106/117 120/108/119 
f 217/205/216 218/206/217 116/104/115 118/106/117 
f 218/206/217 219/207/218 114/102/113 116/104/115 
f 219/207/218 220/208/219 112/100/111 114/102/113 
f 220/208/219 221/209/220 110/98/109 112/100/111 
s off
f 221/209/220 222/210/221 108/96/107 110/98/109 
f 222/210/221 193/181/192 105/93/104 108/96/107 
s 4
f 97/85/96 17/6/17 20/7/20 223/211/222 
f 223/211/222 20/7/20 22/9/22 224/212/223 
f 224/212/223 22/9/22 24/11/24 225/213/224 
f 225/213/224 24/11/24 26/13/26 226/214/225 
f 226/214/225 26/13/26 28/15/28 227/215/226 
f 227/215/226 28/15/28 30/17/30 228/216/227 
f 228/216/227 30/17/30 32/19/32 229/217/228 
f 229/217/228 32/19/32 34/21/34 230/218/229 
f 230/218/229 34/21/34 36/23/36 231/219/230 
f 231/219/230 36/23/36 38/25/38 232/220/231 
f 232/220/231 38/25/38 40/27/40 233/221/232 
f 233/221/232 40/27/40 42/29/42 234/222/233 
f 234/222/233 42/29/42 44/31/44 235/223/234 
f 235/223/234 44/31/44 46/33/46 236/224/235 
f 236/224/235 46/33/46 48/35/48 237/225/236 
f 237/225/236 48/35/48 50/37/50 238/226/237 
f 238/226/237 50/37/50 52/39/52 239/227/238 
f 239/227/238 52/39/52 54/41/54 240/228/239 
f 240/228/239 54/41/54 56/43/56 241/229/240 
f 241/229/240 56/43/56 58/45/58 242/230/241 
f 242/230/241 58/45/58 60/47/60 243/231/242 
f 243/231/242 60/47/60 62/49/62 244/232/243 
f 244/232/243 62/49/62 64/51/64 245/233/244 
f 245/233/244 64/51/64 66/53/66 246/234/245 
f 246/234/245 66/53/66 68/55/68 247/235/246 
f 99/87/98 69/58/69 72/59/72 248/236/247 
f 248/236/247 72/59/72 74/61/74 249/237/248 
f 249/237/248 74/61/74 76/63/76 250/238/249 
f 250/238/249 76/63/76 78/65/78 251/239/250 
f 251/239/250 78/65/78 80/67/80 252/240/251 
f 252/240/251 80/67/80 82/69/82 253/241/252 
f 253/241/252 82/69/82 84/71/84 254/242/253 
f 254/242/253 84/71/84 86/73/86 255/243/254 
f 255/243/254 86/73/86 88/75/88 256/244/255 
f 256/244/255 88/75/88 90/77/90 257/245/256 
f 257/245/256 90/77/90 92/79/92 258/246/257 
f 258/246/257 92/79/92 94/81/93 259/247/257 
f 259/247/257 94/81/93 96/83/95 98/86/97 
f 247/235/246 68/55/68 101/89/100 100/88/99 
f 260/85/258 261/211/259 19/8/19 18/5/18 
f 261/211/259 262/212/260 21/10/21 19/8/19 
f 262/212/260 263/213/261 23/12/23 21/10/21 
f 263/213/261 264/214/262 25/14/25 23/12/23 
f 264/214/262 265/215/263 27/16/27 25/14/25 
f 265/215/263 266/216/264 29/18/29 27/16/27 
f 266/216/264 267/217/265 31/20/31 29/18/29 
f 267/217/265 268/218/266 33/22/33 31/20/31 
f 268/218/266 269/219/267 35/24/35 33/22/33 
f 269/219/267 270/220/268 37/26/37 35/24/35 
f 270/220/268 271/221/269 39/28/39 37/26/37 
f 271/221/269 272/222/270 41/30/41 39/28/39 
f 272/222/270 273/223/271 43/32/43 41/30/41 
f 273/223/271 274/224/272 45/34/45 43/32/43 
f 274/224/272 275/225/273 47/36/47 45/34/45 
f 275/225/273 276/226/274 49/38/49 47/36/47 
f 276/226/274 277/227/275 51/40/51 49/38/49 
f 277/227/275 278/228/276 53/42/53 51/40/51 
f 278/228/276 279/229/277 55/44/55 53/42/53 
f 279/229/277 280/230/278 57/46/57 55/44/55 
f 280/230/278 281/231/279 59/48/59 57/46/57 
f 281/231/279 282/232/280 61/50/61 59/48/59 
f 282/232/280 283/233/281 63/52/63 61/50/61 
f 283/233/281 284/234/282 65/54/65 63/52/63 
f 284/234/282 285/235/283 67/56/67 65/54/65 
f 286/87/284 287/236/285 71/60/71 70/57/70 
f 287/236/285 288/237/286 73/62/73 71/60/71 
f 288/237/286 289/238/287 75/64/75 73/62/73 
f 289/238/287 290/239/288 77/66/77 75/64/75 
f 290/239/288 291/240/289 79/68/79 77/66/77 
f 291/240/289 292/241/290 81/70/81 79/68/79 
f 292/241/290 293/242/291 83/72/83 81/70/81 
f 293/242/291 294/243/292 85/74/85 83/72/83 
f 294/243/292 295/244/293 87/76/87 85/74/85 
f 295/244/293 296/245/294 89/78/89 87/76/87 
f 296/245/294 297/246/295 91/80/91 89/78/89 
f 297/246/295 298/247/296 93/82/91 91/80/91 
f 298/247/296 299/86/297 95/84/94 93/82/91 
f 285/235/283 300/88/298 102/90/101 67/56/67 
f 299/86/297 260/85/258 18/5/18 95/84/94 
f 300/88/298 286/87/284 70/57/70 102/90/101 
s 1
f 261/211/259 260/85/258 97/85/96 223/211/222 
s 2
f 262/212/260 261/211/259 223/211/222 224/212/223 
f 263/213/261 262/212/260 224/212/223 225/213/224 
f 264/214/262 263/213/261 225/213/224 226/214/225 
f 265/215/263 264/214/262 226/214/225 227/215/226 
f 266/216/264 265/215/263 227/215/226 228/216/227 
f 267/217/265 266/216/264 228/216/227 229/217/228 
f 268/218/266 267/217/265 229/217/228 230/218/229 
f 269/219/267 268/218/266 230/218/229 231/219/230 
f 270/220/268 269/219/267 231/219/230 232/220/231 
f 271/221/269 270/220/268 232/220/231 233/221/232 
f 272/222/270 271/221/269 233/221/232 234/222/233 
f 273/223/271 272/222/270 234/222/233 235/223/234 
f 274/224/272 273/223/271 235/223/234 236/224/235 
f 275/225/273 274/224/272 236/224/235 237/225/236 
f 276/226/274 275/225/273 237/225/236 238/226/237 
f 277/227/275 276/226/274 238/226/237 239/227/238 
f 278/228/276 277/227/275 239/227/238 240/228/239 
f 279/229/277 278/228/276 240/228/239 241/229/240 
s off
f 280/230/278 279/229/277 241/229/240 242/230/241 
f 281/231/279 280/230/278 242/230/241 243/231/242 
s 1
f 282/232/280 281/231/279 243/231/242 244/232/243 
f 283/233/281 282/232/280 244/232/243 245/233/244 
f 284/234/282 283/233/281 245/233/244 246/234/245 
f 285/235/283 284/234/282 246/234/245 247/235/246 
s 2
f 287/236/285 286/87/284 99/87/98 248/236/247 
f 288/237/286 287/236/285 248/236/247 249/237/248 
f 289/238/287 288/237/286 249/237/248 250/238/249 
f 290/239/288 289/238/287 250/238/249 251/239/250 
f 291/240/289 290/239/288 251/239/250 252/240/251 
f 292/241/290 291/240/289 252/240/251 253/241/252 
f 293/242/291 292/241/290 253/241/252 254/242/253 
f 294/243/292 293/242/291 254/242/253 255/243/254 
s 1
f 295/244/293 294/243/292 255/243/254 256/244/255 
f 296/245/294 295/244/293 256/244/255 257/245/256 
f 297/246/295 296/245/294 257/245/256 258/246/257 
f 298/247/296 297/246/295 258/246/257 259/247/257 
f 299/86/297 298/247/296 259/247/257 98/86/97 
f 300/88/298 285/235/283 247/235/246 100/88/99 
f 260/85/258 299/86/297 98/86/97 97/85/96 
s 2
f 286/87/284 300/88/298 100/88/99 99/87/98 
# 254 polygons

#
# object road
#

v  -79.6583 2.8662 437.0714
v  -6.3317 2.8662 432.1890
v  66.9944 2.8662 427.3066
v  140.3209 2.8662 422.4242
v  204.4243 2.8662 398.0609
v  248.4295 2.8662 351.9969
v  259.0767 2.8662 290.3837
v  241.6976 2.8662 227.0069
v  208.7757 2.8662 161.3047
v  168.5114 2.8662 102.6828
v  125.7994 2.8662 42.8811
v  78.6541 2.8662 -9.7072
v  31.3039 2.8662 -57.0710
v  -7.9551 2.8662 -109.1394
v  -13.1403 2.8662 -124.6592
v  -6.0418 2.8662 -139.4025
v  42.7040 2.8662 -188.9147
v  104.3728 2.8662 -227.2403
v  170.5971 2.8662 -259.5021
v  233.8985 2.8662 -293.7084
v  259.6435 2.8662 -342.1971
v  231.5511 2.8662 -397.0850
v  173.7643 2.8662 -416.6604
v  101.0056 2.8662 -426.9932
v  60.0393 3.2601 -325.8107
v  57.1962 3.2601 -301.9294
v  23.8064 3.2601 -280.8059
v  -48.2272 3.2601 -237.5517
v  -69.8564 3.2601 -218.4534
v  -86.1559 3.2601 -195.0515
v  -94.7334 3.2601 -169.8901
v  -101.8570 3.2601 -46.5024
v  -32.6676 3.2601 25.1421
v  13.3894 3.2601 70.6309
v  55.4660 3.2601 129.1975
v  72.2398 3.2601 200.5572
v  66.5537 3.2601 262.8193
v  44.6625 3.2601 293.8082
v  14.0247 3.2601 312.0819
v  -22.5631 3.2601 320.5253
v  -77.2439 3.2601 312.4840
v  -120.7534 3.2601 278.7449
v  -134.8818 3.2601 243.2585
v  -143.5391 3.2601 188.0714
v  -146.5209 3.2601 110.9034
v  -147.4269 3.2601 57.6646
v  -148.8758 3.2601 -43.3314
v  -140.7106 3.2601 -208.8175
v  -131.3252 3.2601 -270.2126
v  -111.7082 3.2601 -312.2868
v  -76.7468 3.2601 -344.1014
v  -31.4590 3.2601 -364.6516
v  16.7133 3.2601 -369.3708
v  45.8241 3.2601 -356.5154
v  29.0849 2.8662 -432.1706
v  -44.3110 2.8662 -435.8652
v  -114.5825 2.8662 -427.6951
v  -181.5936 2.8662 -414.4725
v  -235.3559 2.8662 -377.8792
v  -263.2771 2.8662 -317.0709
v  -270.5567 2.8662 -247.6085
v  -271.1094 2.8662 -174.4093
v  -271.1094 2.8662 -100.9205
v  -268.3546 2.8662 -28.4958
v  -263.4725 2.8662 44.8306
v  -257.3156 2.8662 117.2348
v  -248.4368 2.8662 190.1852
v  -239.5579 2.8662 263.1355
v  -230.8485 2.8662 336.1439
v  -206.0510 2.8662 398.1718
v  -149.8960 2.8662 428.2049
# 71 vertices

vn 0.0000 1.0000 -0.0000
vn -0.0000 1.0000 -0.0000
vn 0.0000 -1.0000 -0.0000
vn 0.0005 1.0000 -0.0037
vn 0.0136 0.9999 0.0016
# 5 vertex normals

vt 3.4318 -0.1924 0.0000
vt 3.3990 0.3002 0.0000
vt 3.3662 0.7927 0.0000
vt 3.3334 1.2853 0.0000
vt 3.1698 1.7158 0.0000
vt 2.8603 2.0114 0.0000
vt 2.4465 2.0830 0.0000
vt 2.0208 1.9662 0.0000
vt 1.5794 1.7451 0.0000
vt 1.1857 1.4746 0.0000
vt 0.7840 1.1877 0.0000
vt 0.4307 0.8710 0.0000
vt 0.1126 0.5530 0.0000
vt -0.2372 0.2893 0.0000
vt -0.3414 0.2544 0.0000
vt -0.4404 0.3021 0.0000
vt -0.7730 0.6296 0.0000
vt -1.0304 1.0438 0.0000
vt -1.2472 1.4886 0.0000
vt -1.4769 1.9138 0.0000
vt -1.8026 2.0868 0.0000
vt -2.1713 1.8981 0.0000
vt -2.3028 1.5099 0.0000
vt -2.3722 1.0212 0.0000
vt -1.6926 0.7460 0.0000
vt -1.5321 0.7269 0.0000
vt -1.3903 0.5026 0.0000
vt -1.0997 0.0188 0.0000
vt -0.9714 -0.1265 0.0000
vt -0.8142 -0.2360 0.0000
vt -0.6452 -0.2936 0.0000
vt 0.1836 -0.3415 0.0000
vt 0.6648 0.1233 0.0000
vt 0.9704 0.4326 0.0000
vt 1.3638 0.7153 0.0000
vt 1.8431 0.8280 0.0000
vt 2.2613 0.7898 0.0000
vt 2.4695 0.6427 0.0000
vt 2.5922 0.4369 0.0000
vt 2.6489 0.1912 0.0000
vt 2.5949 -0.1761 0.0000
vt 2.3683 -0.4684 0.0000
vt 2.1299 -0.5633 0.0000
vt 1.7592 -0.6215 0.0000
vt 1.2409 -0.6415 0.0000
vt 0.8833 -0.6476 0.0000
vt 0.2049 -0.6573 0.0000
vt -0.9067 -0.6025 0.0000
vt -1.3191 -0.5394 0.0000
vt -1.6017 -0.4076 0.0000
vt -1.8154 -0.1728 0.0000
vt -1.9535 0.1314 0.0000
vt -1.9852 0.4550 0.0000
vt -1.8988 0.6505 0.0000
vt -2.4070 0.5381 0.0000
vt -2.4318 0.0451 0.0000
vt -2.3769 -0.4270 0.0000
vt -2.2881 -0.8771 0.0000
vt -2.0423 -1.2382 0.0000
vt -1.6338 -1.4257 0.0000
vt -1.1673 -1.4746 0.0000
vt -0.6756 -1.4784 0.0000
vt -0.1819 -1.4784 0.0000
vt 0.3045 -1.4599 0.0000
vt 0.7971 -1.4271 0.0000
vt 1.2834 -1.3857 0.0000
vt 1.7734 -1.3261 0.0000
vt 2.2635 -1.2664 0.0000
vt 2.7539 -1.2079 0.0000
vt 3.1705 -1.0414 0.0000
vt 3.3722 -0.6642 0.0000
# 71 texture coords

o road
g road
usemtl 02___Default
s 1
f 301/248/299 302/249/300 303/250/300 304/251/299 305/252/299 306/253/299 307/254/299 308/255/299 309/256/299 310/257/299 311/258/299 312/259/299 313/260/301 314/261/301 315/262/301 316/263/301 317/264/301 318/265/301 319/266/299 320/267/299 321/268/299 322/269/299 323/270/299 324/271/302 325/272/303 326/273/301 327/274/301 328/275/299 329/276/299 330/277/299 331/278/299 332/279/299 333/280/299 334/281/301 335/282/301 336/283/301 337/284/301 338/285/301 339/286/301 340/287/301 341/288/301 342/289/301 343/290/301 344/291/301 345/292/301 346/293/301 347/294/301 348/295/301 349/296/301 350/297/301 351/298/301 352/299/301 353/300/301 354/301/301 325/272/303 324/271/302 355/302/299 356/303/299 357/304/299 358/305/299 359/306/299 360/307/299 361/308/299 362/309/299 363/310/299 364/311/299 365/312/299 366/313/299 367/314/300 368/315/301 369/316/299 370/317/299 371/318/299 
# 1 polygons

#
# object grass
#

v  -118.1718 3.2601 -266.3594
v  -127.1655 3.2601 -207.7062
v  -118.1256 3.2601 -192.7336
v  -108.7002 3.2601 -236.5673
v  -135.3129 3.2601 -43.0354
v  -133.8567 3.2601 57.6255
v  -90.8408 3.2601 47.0789
v  -126.2646 3.2601 -42.0022
v  -132.9599 3.2601 110.5293
v  -69.3346 3.2601 96.0023
v  -130.0073 3.2601 186.6397
v  -49.1269 3.2601 162.4458
v  -121.7851 3.2601 239.4787
v  -37.4283 3.2601 221.7191
v  -109.6669 3.2601 269.9132
v  -33.3910 3.2601 264.3225
v  -72.1405 3.2601 299.5224
v  -21.9035 3.2601 292.0879
v  -23.1206 3.2601 306.7312
v  -97.9261 3.2601 -202.6779
v  -80.1936 3.2601 -227.6348
v  -90.7768 3.2601 -249.1276
v  -105.3738 3.2601 -226.1041
v  -7.0660 3.2601 -278.0595
v  16.0552 3.2601 -291.9542
v  15.1665 3.2601 -315.3008
v  -14.7830 3.2601 -305.0256
v  -56.9834 3.2601 -248.0618
v  -73.0208 3.2601 -268.6380
v  -69.4520 3.2601 -332.4597
v  -100.5794 3.2601 -303.9960
v  -80.1839 3.2601 -277.8282
v  -52.2217 3.2601 -299.8248
v  44.4060 3.2601 -309.2516
v  46.1139 3.2601 -323.5986
v  -28.0439 3.2601 -351.3639
v  -18.2297 3.2601 -317.0698
v  -114.9508 3.2601 -187.4752
v  -107.8426 3.2601 -175.7020
v  -75.7334 3.2601 43.3749
v  -41.9092 3.2601 35.0819
v  -115.9720 3.2601 -40.8268
v  -123.0868 3.2601 -41.6393
v  -46.9891 3.2601 90.9003
v  3.0407 3.2601 79.4774
v  -20.7214 3.2601 153.9488
v  42.8764 3.2601 134.9247
v  -7.8018 3.2601 215.4818
v  58.5295 3.2601 201.5171
v  -6.6026 3.2601 262.3591
v  53.3746 3.2601 257.9630
v  -4.2601 3.2601 289.4768
v  35.2422 3.2601 283.6309
v  -2.8780 3.2601 302.0599
v  8.9020 3.2601 299.3414
v  -95.5037 3.2601 -258.7273
v  14.7695 3.2601 -325.7285
v  -32.6217 3.2601 -262.7018
v  -46.1703 3.2601 -288.3633
v  43.2983 3.2601 -329.6804
v  -108.9628 3.2601 -286.0607
v  13.6391 3.2601 -355.4195
v  35.2812 3.2601 -346.9974
# 63 vertices

vn 0.0000 1.0000 -0.0000
# 1 vertex normals

vt 0.1617 5.3896 0.0000
vt 0.0771 4.8380 0.0000
vt 0.1621 4.6972 0.0000
vt 0.2508 5.1094 0.0000
vt 0.0005 3.2896 0.0000
vt 0.0142 2.3430 0.0000
vt 0.4187 2.4422 0.0000
vt 0.0856 3.2798 0.0000
vt 0.0226 1.8455 0.0000
vt 0.6209 1.9821 0.0000
vt 0.0504 1.1298 0.0000
vt 0.8110 1.3573 0.0000
vt 0.1277 0.6329 0.0000
vt 0.9210 0.7999 0.0000
vt 0.2417 0.3467 0.0000
vt 0.9589 0.3993 0.0000
vt 0.5945 0.0683 0.0000
vt 1.0670 0.1382 0.0000
vt 1.0555 0.0005 0.0000
vt 0.3521 4.7908 0.0000
vt 0.5188 5.0254 0.0000
vt 0.4193 5.2275 0.0000
vt 0.2820 5.0110 0.0000
vt 1.2065 5.4996 0.0000
vt 1.4239 5.6303 0.0000
vt 1.4155 5.8498 0.0000
vt 1.1339 5.7532 0.0000
vt 0.7371 5.2175 0.0000
vt 0.5863 5.4110 0.0000
vt 0.6198 6.0112 0.0000
vt 0.3271 5.7435 0.0000
vt 0.5189 5.4974 0.0000
vt 0.7819 5.7043 0.0000
vt 1.6905 5.7929 0.0000
vt 1.7066 5.9278 0.0000
vt 1.0092 6.1889 0.0000
vt 1.1015 5.8664 0.0000
vt 0.1920 4.6478 0.0000
vt 0.2588 4.5371 0.0000
vt 0.5608 2.4770 0.0000
vt 0.8788 2.5550 0.0000
vt 0.1824 3.2688 0.0000
vt 0.1155 3.2764 0.0000
vt 0.8311 2.0301 0.0000
vt 1.3015 2.1375 0.0000
vt 1.0781 1.4372 0.0000
vt 1.6761 1.6161 0.0000
vt 1.1996 0.8586 0.0000
vt 1.8233 0.9899 0.0000
vt 1.2108 0.4178 0.0000
vt 1.7748 0.4591 0.0000
vt 1.2329 0.1628 0.0000
vt 1.6043 0.2177 0.0000
vt 1.2459 0.0444 0.0000
vt 1.3566 0.0700 0.0000
vt 0.3748 5.3178 0.0000
vt 1.4118 5.9479 0.0000
vt 0.9662 5.3552 0.0000
vt 0.8388 5.5965 0.0000
vt 1.6801 5.9850 0.0000
vt 0.2483 5.5749 0.0000
vt 1.4012 6.2271 0.0000
vt 1.6047 6.1479 0.0000
# 63 texture coords

o grass
g grass
usemtl Material__1
s 1
f 372/319/304 373/320/304 374/321/304 375/322/304 
f 376/323/304 377/324/304 378/325/304 379/326/304 
f 377/324/304 380/327/304 381/328/304 378/325/304 
f 380/327/304 382/329/304 383/330/304 381/328/304 
f 382/329/304 384/331/304 385/332/304 383/330/304 
f 384/331/304 386/333/304 387/334/304 385/332/304 
f 386/333/304 388/335/304 389/336/304 387/334/304 
f 388/335/304 390/337/304 389/336/304 
f 373/320/304 376/323/304 379/326/304 374/321/304 
f 391/338/304 392/339/304 393/340/304 394/341/304 
f 395/342/304 396/343/304 397/344/304 398/345/304 
f 392/339/304 399/346/304 400/347/304 393/340/304 
f 401/348/304 402/349/304 403/350/304 404/351/304 
f 396/343/304 405/352/304 406/353/304 397/344/304 
f 407/354/304 401/348/304 404/351/304 408/355/304 
f 409/356/304 410/357/304 391/338/304 394/341/304 
f 411/358/304 412/359/304 413/360/304 414/361/304 
f 415/362/304 416/363/304 412/359/304 411/358/304 
f 417/364/304 418/365/304 416/363/304 415/362/304 
f 419/366/304 420/367/304 418/365/304 417/364/304 
f 421/368/304 422/369/304 420/367/304 419/366/304 
f 423/370/304 424/371/304 422/369/304 421/368/304 
f 425/372/304 426/373/304 424/371/304 423/370/304 
f 414/361/304 413/360/304 410/357/304 409/356/304 
f 393/340/304 427/374/304 375/322/304 394/341/304 
f 397/344/304 428/375/304 408/355/304 398/345/304 
f 400/347/304 403/350/304 427/374/304 393/340/304 
f 400/347/304 399/346/304 429/376/304 430/377/304 
f 430/377/304 429/376/304 395/342/304 398/345/304 
f 406/353/304 431/378/304 428/375/304 397/344/304 
f 374/321/304 409/356/304 394/341/304 375/322/304 
f 378/325/304 411/358/304 414/361/304 379/326/304 
f 381/328/304 415/362/304 411/358/304 378/325/304 
f 383/330/304 417/364/304 415/362/304 381/328/304 
f 385/332/304 419/366/304 417/364/304 383/330/304 
f 387/334/304 421/368/304 419/366/304 385/332/304 
f 389/336/304 423/370/304 421/368/304 387/334/304 
f 379/326/304 414/361/304 409/356/304 374/321/304 
f 403/350/304 400/347/304 430/377/304 404/351/304 
f 404/351/304 430/377/304 398/345/304 408/355/304 
f 427/374/304 432/379/304 372/319/304 375/322/304 
f 428/375/304 433/380/304 407/354/304 408/355/304 
f 403/350/304 402/349/304 432/379/304 427/374/304 
f 431/378/304 434/381/304 433/380/304 428/375/304 
f 390/337/304 425/372/304 423/370/304 389/336/304 
# 44 polygons - 1 triangles

#
# object Object001
#

v  370.5311 0.0000 500.9807
v  355.1039 -0.0000 480.0928
v  -353.6574 -0.0000 480.0928
v  -369.0847 0.0000 500.9807
v  370.5311 0.0000 -500.4334
v  355.1039 -0.0000 -479.5455
v  -369.0847 0.0000 -500.4334
v  -353.6574 -0.0000 -479.5455
# 8 vertices

vn -0.0000 1.0000 -0.0000
vn 0.0000 1.0000 -0.0000
vn -0.0000 1.0000 0.0000
vn 0.0000 1.0000 0.0000
# 4 vertex normals

vt 1.0000 0.0000 0.0000
vt 0.0000 0.0000 0.0000
# 2 texture coords

o Object001
g Object001
usemtl wire_178211226
s 1
f 435/382/305 436/382/305 437/383/306 438/383/306 
f 439/382/307 440/382/307 436/383/305 435/383/305 
f 441/382/308 442/382/308 440/383/307 439/383/307 
f 438/382/306 437/382/306 442/383/308 441/383/308 
s 2
f 437/383/306 436/383/305 440/383/307 442/383/308 
# 5 polygons

